<svg xmlns="http://www.w3.org/2000/svg" width="260" height="84" viewBox="0 0 260 84"><title>Department of Education and Knowledge, Abu Dhabi</title><g fill="none" fill-rule="evenodd"><path fill="#fff" fill-rule="nonzero" d="M239.23 29.05a1 1 0 0 1-.32.31q-.36.21-.76.18a.8.8 0 0 1-.73-.37 13 13 0 0 1-1.42-2.8l-1.1-2.7q-.55-1.35-1.3-2.6a6 6 0 0 0-1.83-1.55 5 5 0 0 0-1.66-.35q-1.37-.08-2.73.22c-.5.11-.98.36-1.36.73q-.17.21-.41.35-.67.25-1.24.68c-1.03.76-.87 1.93-.33 2.38h.03c0-.3 0-.56.06-.56.4.23.88.32 1.34.26.57-.08.93.78.93.78l.1-.25q.1.36.33.66l.08-.12c.18.21.47.35.47.7q-.07.61-.55 1c-.15.13-1.05.87-2 1.85-.5.5-.76.82-1.26 1.37q-.28.38-.75.46h-.12a.9.9 0 0 1-.62-.28l-7.3-9.66c4.22-4.12 11.22-4.8 13-4.68.4.03.87.36.36 1.03.8.16 1.64 0 2.32-.47.68.46 1.51.63 2.32.47-.52-.67-.05-1 .36-1.03 1.73-.13 8.4.19 13.04 4.79-2.27 3-5.3 6.82-6.97 9.19m20.56 12.58c.15-15.6-3.25-24.34-6.24-28.62 1.01-1.34 1.64-2.16 1.68-2.2a3 3 0 0 1 1.86-.94q.38-2.26 1.07-4.47-1.88 1.35-3.97 2.33c.14.7 0 1.44-.38 2.04-.04.06-.51.7-1.3 1.74a18.6 18.6 0 0 0-6.75-5.05c.05-.81-.24-1.6-.8-2.2a1.6 1.6 0 0 0-.93-1.27 2 2 0 0 0-1.64.47c-.86.13-1.64.56-2.22 1.2q-3.09-.64-6.24-.81a3.7 3.7 0 0 0-1.95-2.45 2 2 0 0 0-1.53-1.04c-.64.09-1.21.47-1.53 1.04a3.7 3.7 0 0 0-1.94 2.45 43 43 0 0 0-6.23.8 3.7 3.7 0 0 0-2.22-1.2 2 2 0 0 0-1.65-.46c-.51.23-.86.71-.93 1.27a3 3 0 0 0-.8 2.19q-.92.42-1.71.87a16 16 0 0 0-4.94 4.13l-1.18-1.58a2.8 2.8 0 0 1-.38-2.05 25 25 0 0 1-3.97-2.32 34 34 0 0 1 1.06 4.5 3 3 0 0 1 1.86.93l1.48 1.94c-2.98 4.26-6.45 13.07-6.3 28.77 0 1.45-.6 15.05 3.82 24.21a22 22 0 0 0 4.24 5.67 16 16 0 0 0 7.07 3.94l.32.08c3.33.91 6.19.39 7.34-.28l-.17.41-.14.38c-.62 1.68-.2 3.43 2.07 3.7q1.06.04 2.06.46 1.06.51 1.85 1.4.69.74 1.17 1.63.47-.9 1.16-1.64a6 6 0 0 1 1.86-1.4 6 6 0 0 1 2.06-.46c2.27-.26 2.7-2 2.08-3.69-.04-.1-.1-.27-.16-.38l-.17-.41c1.58.93 6.43 1.63 11.09-1.33a19.2 19.2 0 0 0 7.38-8c4.43-9.17 3.83-23.04 3.82-24.29"/><path fill="#ea0029" d="M258.85 37.36c-1.3 1.06-2.53 2.12-6.59 4.46l-1.05.57v-.76c0-.08.29-10.39-4.71-19.27l-2.45 3.14a2.2 2.2 0 0 1 1.85.67 19 19 0 0 1 3.72 6c.6 1.8.9 3.7.83 5.61 0 0-.6 10.5-1.8 20.55-1.09 9.13-1.69 10.33-1.69 10.33a7 7 0 0 1-1.15-2.53l-.1.1a8 8 0 0 1-1.01-2.72c-.44-2.05-.52-5.7-.47-7.48a3 3 0 0 0-.4-1.4 7 7 0 0 1-.47-1.27c-.65-2.79-1.93-3.6-2.64-4.47a13 13 0 0 1-1.85-3.05l-.07.06q-.58.46-.84 1.15c.16 1.64.32 2.81.07 3.65-.1-.06-.26-.22-.34-.28.1 1.08-.4 2.32-.08 3.33l-.64-.08.07.15q.13.18.33.28l.2.1c.06.02.22.09.66.23.3-.68.2-1.47-.28-2.04-.3-.37.07-.93.7-.64a9 9 0 0 1 2.63 1.77c1.34 1.27 1.74 2.5 1.45 2.74s-.39.15-.65.06v.14a.8.8 0 0 1-.57.5l-.03.05q-.2.29-.78.26-.42-.03-.78-.23a1 1 0 0 1-.27-.2l-.24.2c1.06 1.43 3.1 3.78 4.54 6.37a20 20 0 0 1 1.52 3.4q-.64.15-1.28 0 .37.9.34 1.89a4 4 0 0 1-2.06-.47q.02.18.07.36l1.7 1.23c-3.18 1.5-7.79.81-7.9.8l-.6-.08-.1.29c.3.74 1.03 2.45 1.19 2.79a10.5 10.5 0 0 0 8.51.58 18 18 0 0 0 5.47-3.54c1.63-1.52 3-3.3 4.08-5.25 3.52-6.88 4.1-17.09 4.1-21.2v-2.15c0-1.4-.1-3.65-.15-4.7M224.57 73.52c.14-.38.78-1.9 1.1-2.68l-.12-.4q-.66.12-1.32.18c-.3.03-4.68.71-7.85-.79.38-.27 1.1-.86 2.09-1.5l.03-.2q-.97.53-2.05.47-.02-.98.34-1.89-.64.15-1.28 0 .6-1.77 1.52-3.4a38 38 0 0 1 3.47-4.91q.17-.63.62-1.1l.2-.21-.39-.31q-.14.15-.31.24-.36.19-.78.23-.59.02-.78-.26l-.03-.05a.8.8 0 0 1-.57-.5v-.15a.5.5 0 0 1-.58-.08c-.28-.24.1-1.47 1.44-2.74a9 9 0 0 1 2.64-1.76c.63-.29 1 .26.7.63a2 2 0 0 0-.28 2.05l.59-.21q.33-.11.53-.37l.06-.14-.56.06c.28-.7-.15-2.43.14-3.54a2 2 0 0 1-.38.22q-.26-1.7-.1-3.41a2.3 2.3 0 0 0-.73-.98 11 11 0 0 1-1.78 2.91c-.7.87-1.99 1.66-2.64 4.47q-.17.66-.47 1.27-.35.65-.4 1.4c.04 1.77-.03 5.43-.46 7.48a8 8 0 0 1-1.03 2.7l-.1-.08q-.3 1.4-1.14 2.53s-.6-1.2-1.69-10.33a392 392 0 0 1-1.8-20.55q-.09-2.87.83-5.57a19 19 0 0 1 3.71-6c.53-.56 1.31-.8 2.07-.64l-.41-.55c-.7-.93-1.49-1.93-2.17-2.83-4.9 8.65-4.78 18.97-4.78 19.06v1.1l-.86-.46a42 42 0 0 1-6.79-4.56c-.05 1.05-.16 4.6-.16 4.6v2.16c0 4.12.74 14.25 4.1 21.2a21 21 0 0 0 4 5.33 16 16 0 0 0 5.96 3.5c.13.03.38.12.51.16 2.7.85 5.61.59 8.11-.73zM226.66 76.13a45 45 0 0 1 .52-4.62q-.33.35-.77.57-.1-.01-.2-.16l-1.86 4.54a2.2 2.2 0 0 1 2.32-.33"/><path fill="#ea0029" d="M234.11 77.35c.06-1.28-.46-4.71-.78-6.67l-.1-.16-.19-.27q-.19.63-.46 1.22a3 3 0 0 1-.63.98 4.5 4.5 0 0 1-1.57-1.94 4.7 4.7 0 0 1-1.55 1.9 3 3 0 0 1-.63-.97l-.26-.66c-.3 2.06-.75 5.35-.7 6.57-1.9-1.26-3.06 0-2.67.88l.14.2c.21.3.55.49.92.5q1.23.04 2.35.54a7.6 7.6 0 0 1 2.67 2.2 7.5 7.5 0 0 1 2.67-2.2 6 6 0 0 1 2.32-.53q.57-.07.93-.5.08-.1.13-.21c.4-.88-.76-2.14-2.67-.88"/><path fill="#ea0029" d="M234.78 72.08a3 3 0 0 1-.63-.46q.42 2.24.57 4.5a2.1 2.1 0 0 1 2.32.33l-1.86-4.79q-.15.24-.37.41"/><path fill="#0a0203" fill-rule="nonzero" d="M259 42.06c0-1.4-.1-3.65-.15-4.7-1.3 1.06-2.53 2.12-6.59 4.46l-1.05.57v-.76c0-.08.28-10.39-4.71-19.27l-2.45 3.13c.69-.07 1.37.17 1.85.68a19 19 0 0 1 3.72 6c.6 1.8.9 3.7.83 5.61 0 0-.6 10.5-1.8 20.55-1.09 9.13-1.69 10.33-1.69 10.33a7 7 0 0 1-1.15-2.53l-.1.1a8 8 0 0 1-1.01-2.72 40 40 0 0 1-.47-7.47 3 3 0 0 0-.4-1.4q-.3-.61-.47-1.28c-.65-2.79-1.93-3.6-2.64-4.47a13 13 0 0 1-1.85-3.05l-.07.06q-.58.46-.84 1.16c.16 1.64.32 2.79.07 3.64-.1-.06-.26-.21-.34-.28.1 1.08-.4 2.33-.08 3.34l-.64-.09.07.16q.13.18.33.28l.2.1.66.23c.3-.68.2-1.48-.28-2.05-.3-.37.07-.93.7-.63a9 9 0 0 1 2.63 1.76c1.34 1.28 1.73 2.5 1.45 2.75s-.39.14-.65.05v.14a.8.8 0 0 1-.58.5l-.03.05q-.18.3-.78.27-.4-.04-.78-.24a1 1 0 0 1-.26-.19l-.24.2c1.06 1.42 3.1 3.78 4.54 6.36a20 20 0 0 1 1.52 3.4q-.64.15-1.28 0 .37.91.34 1.9a4 4 0 0 1-2.06-.47q.01.18.07.36l1.7 1.23c-3.18 1.5-7.79.81-7.9.8l-.6-.08-.1.29c.3.73 1.03 2.45 1.19 2.79a10.5 10.5 0 0 0 8.51.58 18 18 0 0 0 5.47-3.55 21 21 0 0 0 4.08-5.25c3.52-6.88 4.1-17.09 4.1-21.2zm-21.97 34.4-1.86-4.79q-.15.24-.37.41a2 2 0 0 1-.64-.46q.42 2.24.57 4.5a2.2 2.2 0 0 1 2.32.33m-2.91.9c.05-1.29-.47-4.72-.78-6.67l-.1-.17-.2-.26q-.18.62-.46 1.21a3 3 0 0 1-.63.98 4.5 4.5 0 0 1-1.56-1.94 4.6 4.6 0 0 1-1.55 1.91 3 3 0 0 1-.63-.98l-.26-.66c-.31 2.06-.76 5.35-.7 6.57-1.9-1.26-3.06 0-2.67.88l.13.2c.22.3.56.49.93.5q1.22.04 2.34.54a7.6 7.6 0 0 1 2.68 2.2 7.5 7.5 0 0 1 2.67-2.2 6 6 0 0 1 2.32-.53c.36-.04.7-.22.93-.5l.12-.21c.4-.88-.76-2.14-2.66-.88m-9.75-.9a2.2 2.2 0 0 1 2.32-.32 45 45 0 0 1 .52-4.62q-.34.35-.76.57-.09 0-.21-.16l-1.86 4.54m.2-2.86.02-.08c.14-.38.77-1.9 1.1-2.68l-.13-.4q-.65.12-1.31.19c-.3.02-4.68.7-7.86-.8.39-.26 1.11-.86 2.1-1.5l.03-.2q-.96.54-2.06.47-.01-.98.35-1.89-.64.15-1.28 0 .6-1.77 1.51-3.4a38 38 0 0 1 3.48-4.91q.17-.63.61-1.1l.2-.21-.38-.31q-.14.15-.31.24-.37.19-.78.24c-.41 0-.64-.07-.78-.27l-.03-.05a.8.8 0 0 1-.58-.5v-.15c-.19.1-.42.07-.58-.08-.28-.24.11-1.47 1.45-2.74a9 9 0 0 1 2.64-1.77c.63-.27 1 .27.7.64a2 2 0 0 0-.29 2.05l.6-.21q.32-.11.53-.37l.06-.14-.56.06c.29-.7-.15-2.43.13-3.54a2 2 0 0 1-.38.22q-.25-1.7-.1-3.41a2.3 2.3 0 0 0-.68-.97 11 11 0 0 1-1.78 2.9c-.7.88-1.99 1.67-2.64 4.48q-.17.66-.47 1.27-.35.65-.4 1.4c.05 1.77-.03 5.43-.46 7.48a8 8 0 0 1-1.02 2.7l-.1-.08q-.31 1.4-1.15 2.53s-.6-1.2-1.69-10.33a392 392 0 0 1-1.8-20.55c-.06-1.9.22-3.81.83-5.62a19 19 0 0 1 3.71-6c.53-.55 1.31-.8 2.07-.64l-.41-.55c-.7-.93-1.49-1.92-2.17-2.83-4.9 8.66-4.78 18.97-4.78 19.06v1.1l-.86-.46a42 42 0 0 1-6.79-4.56c-.05 1.05-.15 4.6-.15 4.6v2.16c0 4.13.73 14.25 4.1 21.21q1.55 3.01 3.99 5.37c1.7 1.6 3.73 2.8 5.96 3.5l.51.16c2.7.85 5.61.59 8.11-.73M202.1 36.21q3.16 2.62 6.74 4.65a41 41 0 0 1 5.08-19.33l-1.35-1.8c-.46.47-1.05.79-1.68.94a7.4 7.4 0 0 0-.83-3.72 14 14 0 0 1-3.75-.35c-2.49 5.32-3.75 11.46-4.2 19.6m4.21-19.65a5 5 0 0 0 2.06-2.26l-.5-.66q-.85 1.4-1.56 2.92m2.52-3.19q.1-.2.23-.36l-2.12-2.79a3.2 3.2 0 0 1-.56-2.07q-1.32-.61-2.54-1.43l5 6.64m.15-1.3.4.54a17.6 17.6 0 0 1 7.92-5.62c-.25-.38-.6-1.22.33-2.15 1.4.18 1.75 1.02 1.86 1.46a40 40 0 0 1 8.82-1.22c.12-2.3 1.75-2.86 1.75-2.86a.7.7 0 0 1 .38-.58c.22.11.36.33.38.58 0 0 1.63.56 1.74 2.86q4.48.1 8.83 1.22c.08-.44.43-1.28 1.83-1.46.92.93.58 1.77.33 2.15a18 18 0 0 1 8.04 5.72l.41-.55a19 19 0 0 0-7.33-5.36 2.1 2.1 0 0 0-.54-2.23 1 1 0 0 0-.46-.82c-.35-.01-.69.12-.93.37-.87.1-1.63.63-2.04 1.4q-3.67-.85-7.43-1a3.1 3.1 0 0 0-1.86-2.72.99.99 0 0 0-1.95 0 3.1 3.1 0 0 0-1.86 2.72q-3.76.15-7.43 1a2.6 2.6 0 0 0-2.04-1.4 1.2 1.2 0 0 0-.93-.37 1 1 0 0 0-.46.82 2.1 2.1 0 0 0-.54 2.23 18 18 0 0 0-7.22 5.3m42.91 1.03.23.39 5.15-6.87q-1.2.83-2.54 1.44c.06.73-.14 1.46-.56 2.06zm1.09.65-.47.63a4.6 4.6 0 0 0 2.02 2.13q-.7-1.42-1.54-2.76m-7.64 8.77 2.51-3.36q-.15-.16-.26-.35-1.4 1.84-2.73 3.67a25 25 0 0 0-1.7 2.5c0 .26 1.68-1.78 2.18-2.46m-16.88 47.1q.22.67.55 1.3a4 4 0 0 0 1.13-2.33q-.31.27-.66.5-.61.34-1.02.53m-11.02 0c1.36.52 5.1.58 6.9.36 1.94-.2 3.8-.88 5.42-2-.37-.32-.84-.74-1.31-1.2q-.86.75-1.86 1.28a25 25 0 0 1-6.24 1.35s4.64-1.04 6.24-1.92q.76-.5 1.44-1.1c-.6-.58-1.19-1.16-1.62-1.6q-.4.37-.86.68-1.02.62-2.15 1.03-3.16 1.2-5.95 3.12m5.3-27.21c.25-.77.53-5.65-1.38-7.75q1.1 3.8 1.39 7.75m-3.66-12.12q-.15 1.03.06 2.05.19.6.47 1.17.06-1.67-.53-3.22m.98 1.57c0 1.4.28 2.4.76 4.09.05-1.79-.32-3.6-.76-4.1m-7.02-12.85 2.7 3.61c.5.68 2.2 2.73 2.19 2.46q-.78-1.3-1.71-2.5c-.93-1.3-1.95-2.64-2.93-3.94q-.15.2-.25.37m-1.25-6.69c-.15-.15-.52-.46-1.43.17-1.6 1.4-1.09 2.66-2.74 3.78a8 8 0 0 0 2.16.1q.46-.06.78-.12c.41.93.93 1.79.93 3.38 1.93-1.03 1.15-4.35 2.95-4.31l-2.65-2.99m37-.77a16 16 0 0 0-4.69-3.05c-5.2-2.28-11.79-2.29-13.67-2.29s-8.48 0-13.67 2.3a16 16 0 0 0-4.7 3.04s2.35 2.64 2.96 3.36c.34.32.43.83.24 1.25 3.61-2.42 7.71-3.63 15.03-3.68h.33c7.19.07 11.41 1.29 14.99 3.69-.2-.43-.1-.93.24-1.26.6-.71 2.96-3.35 2.96-3.35m-1.03 5.54c.24.83.5 1.75 1.19 2.33q.14.1.32.2c0-1.58.53-2.44.93-3.37q1.47.3 2.94.02c-1.5-1.01-1.17-2.14-2.28-3.38l-.41-.4a1.7 1.7 0 0 0-.91-.4.6.6 0 0 0-.51.23c-.14.17-1.7 1.86-2.73 3 .93-.03 1.16.81 1.43 1.79m-1.25 2.27.46-.62a20.2 20.2 0 0 0-14.13-5.07c-.96 0-1.58.39-1.58.99-.6-.11-.76-.87-.84-1-.06.3-.35.92-.83 1 0-.6-.62-.98-1.6-1q-2.7-.03-5.38.54c-3.22.71-6.21 2.23-8.69 4.42l.47.62a18 18 0 0 1 7.16-4.01q3.08-.87 6.28-.84c1.13.05 1.3.7 1.16 1.05a2 2 0 0 0 1.43-.69c.35.43.87.68 1.42.69-.13-.36.03-1 1.16-1.05q3.2-.03 6.29.84c2.67.83 5.13 2.24 7.2 4.13m-8.36 10.14q.41.03.77-.18a1 1 0 0 0 .32-.3c1.64-2.38 4.67-6.19 6.96-9.2-4.64-4.6-11.3-4.91-13.04-4.78-.41.03-.87.35-.36 1.03-.8.16-1.64 0-2.32-.47a3 3 0 0 1-2.32.47c.51-.68.05-1-.36-1.03-1.75-.13-8.75.55-13 4.68 2.32 3.09 7.2 9.53 7.3 9.66q.25.27.63.28h.11c.3-.05.58-.22.75-.46.5-.55.76-.86 1.25-1.37.96-.98 1.86-1.72 2.01-1.86.32-.24.52-.6.55-.99 0-.35-.3-.49-.46-.7l-.1.12q-.21-.3-.32-.66l-.1.25s-.36-.87-.93-.79c-.46.07-.93-.02-1.33-.24-.05 0-.09.24-.07.55h-.03c-.53-.47-.7-1.63.33-2.38q.57-.44 1.24-.68.24-.13.41-.36.58-.54 1.37-.72 1.35-.3 2.73-.22.85.05 1.65.35 1.06.6 1.83 1.56.76 1.24 1.3 2.6l1.1 2.7q.54 1.47 1.4 2.79c.16.24.44.38.73.37m-14.24 12.63a2.6 2.6 0 0 0 1.13 2.02 7 7 0 0 0-1.13-2.02m8.82 7.67q-.3.51-.76.9.1-.3.13-.62-.3.53-.73.96-.5.46-.68 1.12.38-.38.84-.6c.6-.42 1.04-1.04 1.2-1.76m.46 7.15q-.53-.74-1.17-1.37.3.68.49 1.4a1 1 0 0 1 .31-.1q.14 0 .27.05l.1.04m-.37 5.87 1.23 1.23q.32-.36.53-.59l-1.24-1.15zm-2.24-2.27c.55.59 1.3 1.36 1.78 1.83l.51-.5-1.9-1.74zm-.2-1.04v.64l.3-.33-.32-.31m0-.37c0-.03.32-.38.47-.54l.03-.03a6 6 0 0 0-.47-1.86c-.04.32-.04 1.51 0 2.41m.8-3.2c.08.53.15 1.75.17 2.15l.46-.46q-.13-.92-.62-1.7m-.84-.53q.2-.09.4-.21.37-.2.58-.55.15-.29.1-.62-.13.33-.39.53-.24.22-.44.47-.15.19-.25.4m-.47-3.5c0-.88-.95-.99-1.17-1.87-.12 1.24.73 1.25 1.18 1.86m.52 2.01q.12-.24.36-.4.81-.47 1.5-1.09.22-.32.3-.7-.25.37-.63.58-.77.41-1.4 1.02-.09.16-.12.34a1 1 0 0 0-.07-.25c-.27-.56-1.07-.8-1.55-1.35-.32-.36-.33-.5-.33-.5q-.04.46.22.86.47.51 1.06.87.41.23.66.62m-.4 1.13a1.3 1.3 0 0 0-.6-.93c0 .5.6.93.6.93m-.26 3.54c0-.53-.05-1.11-.08-1.39q-.27.43-.35.93c.04.04.39.4.43.46m-2.93-1.46c.14-.06.52-.22.72-.27l.15-.04q.18-.67.44-1.3c-.12-.04-1.12 1.34-1.31 1.61m1.57.1.35.33q.17-.93.17-1.86-.4.73-.52 1.54m.04-7.52a1.4 1.4 0 0 0-.14-.54q-.21-.27-.47-.5a1 1 0 0 1-.12-.2q0 .32.08.64.08.3.35.46.14.1.3.15m-.38 9.25-3.97 3.75.68.71q.1.12.19 0l4.53-4.14a.06.06 0 0 0 0-.1l-.89-.98c-.3-.33-.82-.86-1.11-.77q-.37.12-.75.19-.91.14-1.81-.12h-.1q0 .15-.02.27-.05.12-.05.27.82.11 1.64.07c.31 0 .51.1.24.4l-2.74 2.75c-.54.5-.58.63-.42.8l.17.18 1.06-.93 1.69-1.5 1.28-1.21a.13.13 0 0 1 .18 0l.22.23q.06.07-.03.18m6.1-.84q.8.04 1.59-.06l-.07-.3c-.01-.1 0-.15-.03-.23h-.02a4 4 0 0 1-2.56-.07c-.3-.08-.75.4-1.1.78-.37.38-.72.79-.9.98q-.04.04 0 .1l4.53 4.14q.07.09.18 0l.7-.72-3.96-3.82a.13.13 0 0 1-.04-.17l.23-.24a.13.13 0 0 1 .18.02l1.28 1.21 1.69 1.5 1.06.93.17-.17c.16-.17.12-.3-.42-.81l-2.74-2.74c-.27-.3-.07-.4.24-.4m-.8-10.66s.62-.59.84-2.52c.12.15.34.28.4.55.4-.46 1.17-3.07 1.26-3.96.26.11.03.05.32.2q.72-1.89.86-3.91c.1.03.26.03.33.11.13-.93.27-2.44.31-3.5.04-.9 0-2.78-.37-3.84q-.42-1.38-1.19-2.62a1 1 0 0 0-.33.25q-.37-1.13-.87-2.24c-.6-1.15-.87-1.88-1.48-2.27q.36.06.74.06-.48-.52-1-.98.2-.15.82 0c-.6-.55-.8-1.4-2.36-1.98q.44 0 .86.03c-.35-.5-.86-.87-1.44-1.04-1.6-.31-3.8-.36-4.82.86q-.28.15-.6.23-.15.05-.29.15c-.18.13-.21.3.13.8-.46-.07-.56-.5-.65-.47q-.27.19-.46.46-.24.41-.24.9a.3.3 0 0 0 .5-.23c.02-.15.72-.22.96-.22.35 0 .68.09 1.12.06-.16.06-.65.2-.84.25-.18.06-.2.27-.02.28s.29-.06.48-.1c.1.05 0 .27.08.4 1.28-.3 1.4 1.08 2.74.81-.64-.5-1.2-1.35-1.7-1.6 1.35.21 2.08 1.42 3.55 1.48q-.07-.2-.19-.39c.5 0 .86.39 1 .37q-.5.4-1.16.45c.1.18.65.22.83.25-.35.31-.85.41-1.3.26q-.61.75-1.45 1.24 0-.23.05-.47c-.63.37-1.04 1.03-1.5 1.2.13-.22.25-.63.35-.83-1.64 1.48-3.21 2.92-3.8 4-.67 1.2-.87 2.44-.79 4.49.06 1.1.53 4.18.61 4.81l.34-.15a26 26 0 0 0 2.2 6.51q.1-.29.35-.46c.11.66.44 1.28.93 1.74q0-.42.21-.8c.13.45.06 1.82.85 2.58q0-.62.2-1.2.12.72.37 1.43.26.7.84 1.17-.04-.75.16-1.47.54.86.63 1.86c.8-.62 1.1-2.63 1.1-2.63q.3.34.4.76.87-1.07 1.12-2.41a4 4 0 0 1 .03 1.25m-12.93-8.71c.6.85 1.74 3.53 1.7 5.4.72-1.84-.43-5.5-1.53-7.54q.03.56-.3 1.02c-.2-2.32-1.67-4.03-1.92-5.67q-.06.36-.17.72a12 12 0 0 1-1.32-3.34 2 2 0 0 0-.27.97c-.72-2.02-.02-2.84.19-2.96.55-.33 1.2.19 1.72.76.77.86 1.58 2.57 4.18 2.6.41 0 .58-.08.36-.13-2.15-.4-2.53-1.26-4.31-3.2-1.12-1.22-2.22-1.91-3.54-.37a16.6 16.6 0 0 0-3.83 7.65c-.26 1.19-.43 3.72-.12 4.94.3-.1.32-.19.32-.19s.34 3.44.93 4.3q.4-1 .42-2.09.33 1.17 1.07 2.15.32-1.29.12-2.6c.52 1.23.93 1.76 1.19 1.95.22-.54.44-1.44.26-4.26q.26 1.26.37 2.54.24.21.54.35c.1-.29.38-.7-.1-4.25 1.2 3.85.53 4.9.42 5.17q-.49-.28-.84-.72.07 1.07-.38 2.03a3 3 0 0 1-1.01-1q.05.99-.27 1.93a6 6 0 0 1-1.12-1.71c.03.46-.29 1.86-.55 2.08-.99-1.3-1.32-4.98-1.32-4.98l-.15.1c.05.9.17 2.3.3 3.87l.5 5.76q.57 6.63 1.46 13.22.06.56.2 1.11.22-1.57.1-3.16c0-.25.33-.65.3-1.97 0-.54-.61-7.32-.82-9.98l-.07-1.05q.01.13.06.29.3 1.5.52 3.02.14.91.27 1.9.45 2.95.55 5.93c.04 1.27-.38 1.62-.34 1.9.21 1.33.11 2.7-.29 3.98a.6.6 0 0 1-.27-.24c.21 1.2.5 2.16.5 2.16.46-1 .73-2.1.65-4.79q.37-1.05.46-2.2c0-.4-.06-1.7-.17-3.32-.2-2.89-.47-5.76-.68-8.65 0-.13-.04-.46-.04-.5l.1.4q1.11 5.6 1.31 11.3c.1 1.7-.54 2.98-.52 3.22q.12.77.06 1.54.01.52-.09 1.02c.29-.65 1.22-2.87.93-9.76q0-.26-.03-.5c-.25-4.81-.63-7.95-.63-7.95.47 1.35.83 4.24 1.1 7.59l.09-.17c.44-1.26.6-2.6.46-3.92-.16-2.52-.46-4.59-.46-4.59l.07.21q.35 1.15.56 2.33.27 1.35.38 2.7v.38c.95-1.43.54-4.3.07-7.26.42.93 1.19 3.62.98 5.64 1.44-1.35.66-4.04.11-7.11.82 1.83 1.4 4.07 1.21 5.54 1.17-1.52.74-3.52-.3-7.46a14 14 0 0 1 1.55 5.06c.76-1.79-.12-4.75-.87-7.15m1.51 13.88c.23-.37-.1-.47-.78-.06q-1.4.86-2.47 2.11c-.17.24-.11.37.18.07.7-.7 1.75-1.67 1.73-1.21q-.02.62.2 1.22l.32-.08.93-.24c-.29-.71-.35-1.4-.09-1.81m-.43 4.77c-.4.37-.65.89-.68 1.44a.6.6 0 0 0 .57.66c.53-.06.26-.62.56-.27.13.14.53-.32.63-.43-.22.04-.56.08-.5-.26q.1-.38.38-.65c.14-.17.57-1 .85-.9.14.1.06.87-.17 1.35-.46 1.02-.55 1.68-.22 1.86h.02v.03c-.11.38.05.8.4 1l.04-.04q-.12-.37 0-.74c0-.03.03-.15-.26-.23h-.03.46c.2-.03.42-.06.47-.46l.03-.39q.11-.88.26-1.5c.08-.4.21-1.58.21-1.58l.22-.03c.2.01.37.15.43.34q.04.2 0 .38a.5.5 0 0 0 .3-.4.6.6 0 0 0 .26-.39c.07-.4-.4-.8-.46-.85-.28-.21-.19-.62-.07-.98l.16-.42q.23.27.54.46.58.41 1.3.35a3 3 0 0 1-.2-.81 9 9 0 0 1-.04-1.1l.49.52q.3-1.38.1-2.79a11 11 0 0 0-1.18-4.18q-.1.33-.39.55-.84-1-1.31-2.2-.17.29-.4.5l-.09.07v-.1a3 3 0 0 0-.65-1.26q-.3-.35-.46-.78a7 7 0 0 0-.24 1.7q0 .7-.21 1.35l.26-.15q.17-.12.23-.11h.04a7.32 7.32 0 0 0-.3 3.84l.56-.32a8 8 0 0 0-.16 2.83q.03.48-.03.97.41-.08.77-.31-.11.55-.36 1.06c-.43.6-1.36.75-2.04.93q-1.27.27-2.46.79c-.26.13-.5.4-.47.59.05.19.36.25.47.25l.06.13c.18.28.8.1.93.04a1 1 0 0 0 .33-.24c-.03.05-.23 0-.36-.07a.2.2 0 0 1-.09-.1c-.04-.36 1.46-.41 1.68-.41s.3.05.4.2c.09.17.13.32-.76 1.3m.72 5.2a11.71 11.71 0 0 1-2.92 4.9l-.07.31-.13.08.74-.42.37-.18q.76-.4 1.59-.75c.54-.97 1.17-2.12 1.39-2.42q-.27 1.13-.77 2.16l.41-.16c.85-.33 1.6-.6 1.95-.77a5 5 0 0 0 1.34-.88l-.61-.61-.2.17a.5.5 0 0 1-.7.04 57 57 0 0 1-1.63-1.77c-.12-.13-.26-.39.02-.84-.3-.28-.46-.67-.46-1.08a1 1 0 0 1-.2-.86q-.17.12-.38.1a.8.8 0 0 1-.52.25h-.08q-.31 0-.56-.18a1 1 0 0 1-.3-.4v-.04q-1.35 1.51-2.36 3.25a15 15 0 0 0-1.74 3.35c.8-.05 1.23-.17 2.26-1.25.47-.5 1.73-2.35 2.52-3.34a18 18 0 0 1-2 3.72q-.6.84-1.38 1.55s-.3.18-.47 1.15c.53 0 1.92-.77 3.22-2.52.4-.55.67-.98 1.7-2.54m8.56 6.2c.08.78.43 1.53.99 2.09q.38-.61.43-1.31a8 8 0 0 1-1.42-.79m5.44 1.13c1.76.22 5.53.17 6.89-.36a28 28 0 0 0-5.96-3.11q-1.12-.41-2.14-1.04-.52-.36-.98-.79c-1.09-1-3.94-3.98-4.44-4.52l-1.9 1.74s5.02 4.9 6.28 5.58c1.62.88 6.24 1.93 6.24 1.93q-3.16-.29-6.13-1.37c-1.62-.65-6.76-5.72-6.76-5.72L226 63.47a37 37 0 0 0 4.25 4.07 11.3 11.3 0 0 0 6 2.42m3.54-8.6c.79 1 2.04 2.84 2.52 3.35 1.03 1.07 1.47 1.2 2.26 1.25q-.63-1.8-1.73-3.37a32 32 0 0 0-2.78-3.86q0 .29-.08.56l-.05.12q-.11.18-.28.31a1 1 0 0 1-.61.16.8.8 0 0 1-.53-.25.6.6 0 0 1-.38-.1c.06.3-.01.62-.2.86q0 .61-.41 1.06l.05.08c.27.46.15.68 0 .83s-1.36 1.52-1.63 1.77c-.2.16-.5.15-.7-.04l-.2-.17-.57.58.07.06q.62.54 1.4.86c.46.2 1.77.69 2.66 1.05q-.32-1-.71-2.15c.22.32.87 1.45 1.42 2.46a24.85 24.85 0 0 1 2.42 1.24l-.11-.42q-.6-.62-1.12-1.32a14 14 0 0 1-1.78-3.6c1.03 1.57 1.3 2 1.7 2.55 1.3 1.75 2.69 2.51 3.22 2.53-.19-.98-.53-1.2-.53-1.2q-.75-.66-1.33-1.47c.16.23.32.44-.04-.04-.26-.37-.16-.22 0-.04a18 18 0 0 1-1.96-3.66m-1.24-6.88.83.21.4.1q.2-.6.2-1.2c0-.47 1.03.5 1.72 1.21.3.3.35.16.18-.06q-1.06-1.26-2.47-2.12c-.67-.4-1-.31-.78.06.23.36.2 1.09-.08 1.8m-1.28-8.42q0-.05.03-.1h.05q.14.04.24.12l.25.15q-.2-.65-.2-1.34-.01-.84-.22-1.66l-.04-.07q-.18.42-.47.78-.48.54-.65 1.26v.1l-.07-.08c.14.14-.4-.49-.41-.5-.21.8-1.59 2.54-1.9 2.9-.05.06-.58.84-.78 2.79q-.18 1.48 0 2.96l.46-.53q.02.55-.01 1.1-.05.41-.2.8c.66.07 1.31-.2 1.71-.73l.13.35c.13.36.22.77-.06.98-.04.04-.5.45-.46.85q.05.24.27.4c.02.17.13.33.3.4a.6.6 0 0 1 0-.39c.05-.19.23-.33.43-.34q.11 0 .22.03s.12 1.12.21 1.58a15 15 0 0 1 .3 1.89c.04.38.26.41.46.46h.47-.03c-.3.08-.27.2-.26.23q.1.37 0 .74l.04.04c.35-.2.5-.62.39-1v-.03h.03c.33-.2.25-.86-.23-1.86-.22-.47-.31-1.27-.17-1.35h.03c.07 0 .17 0 .39.33.16.23.31.42.51.67q.26.27.31.64a.2.2 0 0 1-.05.16.3.3 0 0 1-.15.04h-.3c.1.1.5.57.62.43.3-.35.03.21.56.27a.57.57 0 0 0 .6-.62q0-.19-.04-.38a2 2 0 0 0-.52-.93l-.11-.13c-.9-.97-.82-1.2-.77-1.28.06-.1.17-.2.4-.21q.38 0 .75.05c.36.06.93.16.93.35a.2.2 0 0 1-.1.1c-.12.05-.32.13-.36.08q.15.15.34.23c.15.07.76.25.93-.04l.06-.13c.1 0 .4-.04.46-.24s-.19-.47-.46-.6q-.64-.28-1.32-.5l-.64-.15-1.06-.28c-.03 0-.59-.19-.8-.28l-.23-.1q-.27-.16-.47-.4-.24-.51-.36-1.07.4.24.85.34a5 5 0 0 1-.03-.97c.17-1.76.2-2.79.2-2.79l.36.37q0-.9-.11-1.78-.12-1.03-.35-2.04m4.43-13.82q.22-1.01.06-2.04a8 8 0 0 0-.52 3.22q.28-.57.46-1.18m-1.55 3.58c.46-1.68.74-2.7.74-4.08-.43.46-.8 2.32-.74 4.08m-1.57-1.52c.61-1.83.1-2.76-.25-2.95 0 .84.2 1.24.25 2.95m-.36 7.98q.3-3.95 1.4-7.75c-1.94 2.1-1.66 6.97-1.4 7.75m8.66-1.2q-.21 1.3.12 2.59.75-.97 1.07-2.15.01 1.08.42 2.09c.59-.86.93-4.3.93-4.3s0 .08.32.2c.31-1.24.14-3.77-.12-4.95a16.6 16.6 0 0 0-3.83-7.66c-1.31-1.55-2.42-.84-3.53.37-1.8 1.95-2.17 2.8-4.32 3.2-.21.05-.06.15.36.14 2.58-.04 3.4-1.75 4.18-2.61.51-.57 1.18-1.08 1.72-.76.21.12.93.93.19 2.96q0-.52-.27-.97a12 12 0 0 1-1.32 3.34 6 6 0 0 1-.17-.72c-.25 1.64-1.72 3.34-1.93 5.67a1.6 1.6 0 0 1-.29-1.02c-1.1 2.04-2.25 5.7-1.54 7.54-.03-1.86 1.12-4.55 1.7-5.4-.74 2.4-1.63 5.36-.87 7.15.18-1.78.71-3.5 1.56-5.07-1.04 3.94-1.48 5.95-.31 7.47-.2-1.47.4-3.72 1.21-5.54-.54 3.07-1.32 5.75.12 7.1-.21-2 .55-4.68.97-5.63-.46 2.97-.88 5.83.08 7.26q.04-1.56.4-3.08c.24-1.3.62-2.55.62-2.55s-.3 2.08-.46 4.6q-.05.64-.03 1.27 0 .78.15 1.55.12.68.47 1.27c.26-3.35.65-6.25 1.1-7.59 0 0-.39 3.14-.64 7.94v.5c-.32 6.9.61 9.11.9 9.77q-.1-.5-.09-1.02a8 8 0 0 1 .06-1.54c.03-.24-.61-1.5-.52-3.22a79 79 0 0 1 .46-5.67l.3-2.3q.24-1.67.56-3.33c.16-.87.07-.1.06.1l-.44 5.4c-.12 1.67-.49 4.97-.41 6.57q.09 1.14.46 2.2c-.08 2.7.19 3.78.66 4.8 0 0 .28-.97.49-2.17a.6.6 0 0 1-.27.24 9 9 0 0 1-.29-3.98c.04-.28-.37-.64-.34-1.9.05-1.99.3-3.96.55-5.93a75 75 0 0 1 .46-3.07q.13-.92.33-1.85.01-.15.06-.29s0 .47-.07 1.06c-.22 2.65-.81 9.43-.82 9.97-.03 1.32.33 1.72.31 1.96q-.14 1.6.08 3.17.12-.54.14-1.1s.38-2.74.82-6.66l.2-1.8q.08-.88.17-1.75l.2-2.1.08-.9.5-5.76.3-3.88-.14-.1s-.34 3.67-1.32 4.97c-.27-.24-.59-1.62-.56-2.08a6 6 0 0 1-1.12 1.71 5 5 0 0 1-.27-1.93q-.38.64-1.01 1.01a4 4 0 0 1-.38-2.04q-.35.45-.83.72c-.12-.28-.78-1.32.4-5.17-.46 3.56-.18 3.97-.1 4.26q.3-.15.55-.36.12-1.28.37-2.53c-.18 2.82.05 3.72.26 4.25.28-.19.68-.72 1.2-1.94m7.8-24.53q-1.86.43-3.76.36a7.4 7.4 0 0 0-.83 3.72 3 3 0 0 1-1.56-.88l-1.4 1.86a40.5 40.5 0 0 1 5.02 19.2 45 45 0 0 0 6.73-4.65c-.46-8.13-1.71-14.27-4.17-19.6m1.39 49.3a19 19 0 0 1-7.4 8c-4.65 2.96-9.51 2.25-11.09 1.33l.17.4.15.39c.62 1.69.2 3.43-2.08 3.7q-1.06.04-2.06.46-1.05.52-1.85 1.4-.7.74-1.16 1.63-.48-.9-1.17-1.64a6 6 0 0 0-1.86-1.4 6 6 0 0 0-2.06-.46c-2.27-.26-2.69-2-2.07-3.7l.15-.37.17-.41c-1.15.67-4.02 1.19-7.34.28l-.33-.08a16 16 0 0 1-7.06-3.94 22 22 0 0 1-4.24-5.67c-4.43-9.16-3.81-22.78-3.83-24.21-.14-15.7 3.33-24.5 6.31-28.77-.9-1.18-1.44-1.9-1.49-1.94a3 3 0 0 0-1.85-.93 34 34 0 0 0-1.07-4.5q1.9 1.35 3.98 2.32c-.14.71 0 1.44.38 2.05l1.18 1.58q2.06-2.57 4.93-4.13.8-.46 1.72-.87a3 3 0 0 1 .8-2.2c.06-.55.42-1.03.93-1.26a2 2 0 0 1 1.64.46c.86.13 1.65.56 2.22 1.2a43 43 0 0 1 6.25-.81 3.7 3.7 0 0 1 1.95-2.45c.31-.57.88-.95 1.52-1.04.65.09 1.21.47 1.53 1.04.98.48 1.7 1.38 1.95 2.45q3.16.19 6.26.82a3.7 3.7 0 0 1 2.21-1.21 2 2 0 0 1 1.65-.46c.51.23.86.71.93 1.27.56.59.85 1.38.8 2.19q.91.42 1.7.87a19 19 0 0 1 5.04 4.18l1.3-1.74c.4-.6.53-1.34.39-2.04q2.09-.98 3.97-2.33-.69 2.22-1.06 4.5c-.71.09-1.37.42-1.86.94-.05.04-.67.86-1.68 2.2 2.97 4.29 6.39 13.02 6.24 28.62 0 1.25.61 15.11-3.81 24.28m-34.96-53.46.8.35.54-.66c-.3-.13-.5-.23-.82-.35-.19.2-.39.46-.52.66m15.26-2.9a1 1 0 0 0-.36.38q.15.23.65.29h.18c.15-.36-.17-.8-.47-.7m6.76 1.83q-.24.58-.68 1.02a26 26 0 0 0-5.13-1.22q-.62.77-1.55 1.12-1.06-.15-2.04-.6.34.03.67 0a4.5 4.5 0 0 0 2.2-.63c-1.23-.19-1.52-.53-.93-1.3.27-.36.71-1 1.39-.84.5.13.63.86.57 1.4q2.38.34 4.64 1.14c.1-.4-.16-.6-.32-.89a5 5 0 0 1 .77-.64c.35.2.55 1 .42 1.44m-5.61.65.58.59.8-.43c-.22-.22-.37-.38-.62-.6-.25.13-.56.32-.76.44m6.28-.3c-.27.63-.5 1.27-.82 1.86.19.07.46-.08.62-.2.83-.5 1.43-1.9 1.75-2.74q-.38.05-.74.21c-.5.22-.58.35-.8.88m.38-1.24c.67-.06 1.3.1 1.57-.2a2 2 0 0 1-.98-.47c.18-.15.43.05.57.16l.25-.23a.86.86 0 0 0-1.27.23q.21.07.38.22a2 2 0 0 0-.52.27m-25.07 2.56-.6-.19a8 8 0 0 0-.43.71l.83.27.32-.47.59.19.46-.7c-.32-.11-.53-.19-.87-.28l-.3.49m14.13-3.67c-.42-.7-1.99-.07-2.99.34.58 0 1.07-.02 1.7 0 .24 0 .89 0 1.33.03a.4.4 0 0 0-.04-.36m.7 1.28c-3.39-.2-10 .16-13.27 1.06a5 5 0 0 0-.63-1.15c-.87-.93-1.22.08-1.22.2 1.08.06 1.27.62 1.27.62q-.37.67-1.05 1.05a4 4 0 0 1-1.86.65c-2.05.1-1.49-2.04-.24-2.91-.17.2-.9 1.3-.47 1.88s2.4.12 2.86-.46q-.36-.34-1.4-.25c.11-.8.53-1.54 1.18-2.04.74.25 1.36.78 1.7 1.48 3-.8 8.49-1.04 8.75-1.05l-.26-2.6c-.02-.32.2-.46.4-.6q.3.59.93.77-.28.3-.61.52l.08 1.4q.96-.45 2-.7.45-.11.92-.09.45.06.8.34.29.24.33.63 0 .64-.23 1.24m-5.73 10.12c-.05-.03-.44-.03-.46.05s.23.2.32.23q.12.02.18-.08.05-.15 0-.2m.22 0q.1.22.06.46a.7.7 0 0 1-.6.65.73.73 0 0 1-.92-.65q0-.2.08-.38c-.15 0-.16.12-.3.3-.09.11-.23.1-.44.24.07-.37.3-.7.64-.86a5 5 0 0 1 3.46.34q-.6-.07-1.21-.07-.76-.03-.77-.02m4.4-13.5c-.25-.2-.43-.34-.7-.53-.24.16-.51.39-.69.53l.68.5c.28-.2.4-.3.72-.5m-7.2 14.1c-.07.05-.14.28.13.29s.27-.24.27-.24-.28-.12-.4-.05m7.43 2.05c-.25-.48-.72-.8-1.25-.88q.29.33.46.74a3 3 0 0 1-.74.15 1.7 1.7 0 0 0 1.55 0m-1.7-1.45a2.5 2.5 0 0 0-1.46-.82c.39.46.79.87 1.46.82m-.43-.81c.26.26 1.08.6 1.54 1.03-.07-.7-.68-1.08-1.54-1.03m-.32 10.1c-.54.88-.54 1.98 0 2.87 0 0 .65-1.97 0-2.88m1.53 5.54a4.5 4.5 0 0 0 1.16-3.03 7 7 0 0 1-1.25 1.57q-.57-.42-1.04-.95c0 1.3 1.15 2.42 1.13 2.41m-1.26-8.73c-.84.93-.32 1.67-.32 1.67s1.02-1.1.32-1.67m1.2-3.42c.28.28 1.15.47 1.64.93a1.18 1.18 0 0 0-1.64-.93m1.31 2.25a1.5 1.5 0 0 0-1.36-1.63c-.07.62.98 1 1.36 1.63m-.46 1.68c-.56.6-.04 1.8.28 2.87.3-.52.65-2.3-.28-2.87m2.95 2.74c-.32 1.47-.96 2.03-.96 2.02q-.52-.45-.93-.98c-.03 1.19.99 2.33.97 2.33s1.24-1 .93-3.38m-1.56-5.07c-.13.66.92 1.67.92 1.68 0 0 .15-1.28-.93-1.68m1.86 3.09c-.1.77.8 2.55.84 2.69.3-.99-.03-2.05-.84-2.7m-7.03 9.15c.58-.93.78-2.06.56-3.14a2.5 2.5 0 0 1-.93 1.78 2 2 0 0 1-.8-.99c.12 1.5.68 1.94 1.15 2.35m-.8-9.3c-1.4 1.05-.73 2.01-.47 2.55q.41-1.24.46-2.54m-.69 3.17c-.92 1.15.5 2.6.5 2.62s.12-2.2-.5-2.62m-3.44 4.56c-.2-1.17-.12-1.96-.69-3a5.6 5.6 0 0 0 .69 3m1.18-6.04c.38-1.4 1.16-2.17 1.42-2.97-1.39.98-1.66 2.48-1.42 2.97m.6 3.57q.03.89-.14 1.76a2 2 0 0 1-.87-.6c.25.78 1.2 1.68 1.36 1.9.14-1.05.18-2.35-.34-3.06m-.98 2.6c-.32 1.39 1.06 2.7 1.06 2.72-.02-1-.4-1.97-1.06-2.73m.41 3.7q.5.85 1.22 1.53c-.6-.9-1.06-2.55-1.64-3q.02.79.42 1.46m-1.7-8.05c-.1-.68.74-1.3.47-2.4a2.2 2.2 0 0 0-.46 2.4m4.94 9.35q-.77-.53-1.26-1.31c.32 1.01.9 1.92 1.7 2.62.17-.28.79-1.51.24-3.48a7 7 0 0 1-.68 2.17m3.65-3.49a4.3 4.3 0 0 1-1.2 2 4 4 0 0 1-.88-1.24 2.6 2.6 0 0 0 1.1 2.47 4.1 4.1 0 0 0 .98-3.23m1.82 3.63c.84-1.04 1.28-2.23.93-3.45-.74 1.17-.77 2.36-.93 3.45m-2.03 1.82c.24-.57.87-1.63.73-2.86-.53.46-.78 2.13-.73 2.86m4.4-6.68c.38-.6.9-1.46.47-2.03q-.3 1-.47 2.03m-2.78 1.95s1.39-1.36 1.36-3.07a3 3 0 0 1-1.36 1.63 2 2 0 0 1-.78-1.08 2.9 2.9 0 0 0 .78 2.52m2.6-3.85c0-.02.93-1.59.4-2.46-.6.14-.38 2.47-.4 2.46m-.04 2.68c-.54.74-.7 2.4-.87 2.96.2-.18 1.2-2.54.87-2.96m-6.3 8.05c.3-.9.24-2-.15-2.48a3.2 3.2 0 0 0 .15 2.48m.89 2.36c.3-.79.28-1.78-.06-2.2-.28.7-.26 1.5.06 2.2m1.15-.76c.56-.96.83-2.06.78-3.17-.59.58-.84 2.42-.78 3.17m-3.6-1.48c-.13-.47-.37-1.94-.92-2.59-.23 1.09.46 2.13.93 2.59m7.08 1.3q0-.3-.15-.6c-.12.55-.84 1.68-.67 3 .32-1.18 1.23-1.42 1.47-2.51q.26.18.57.2a8 8 0 0 1-.53-1.78c-.1.3-.22 1.19-.7 1.7m-9.56 2.32c.16-1.32-.56-2.46-.67-3q-.16.27-.15.6c-.47-.5-.6-1.4-.7-1.7q-.15.93-.53 1.79.3-.04.57-.2c.24 1.09 1.16 1.33 1.48 2.5m-7.18-12.33q-.4-.11-.69-.42c.16.57.54 1.05 1.05 1.33 0 0 .7-1.69-.9-4.1.88 2.54.54 3.2.54 3.2m-.93 2.53q-.38-.17-.62-.5c.09.6.45 1.11.98 1.4.32-1.02.51-1.82-.93-4.8.98 2.92.56 3.9.56 3.9m-5.85-1.4s-.4-.64-.5-2.33c-.23.98-.12 2 .34 2.9q.43-.32.47-.84-.13.16-.3.28m.88-.87s-.43-.67-.6-2.6a4.7 4.7 0 0 0 .5 3.26c.3-.23.48-.6.47-.97-.05.14-.38.3-.38.3m3.87-5.14c-.4-.43-1-1.09-1.63-3.42.07 1.99 1.07 3.83 1.8 4.46.35-.5.41-1.97-.08-3.05q.08 1.01-.1 2.01m-1.02 1.63c-.34-.46-1.02-1.46-1.39-3.84-.12 1.99.83 4.12 1.5 4.8.39-.46.5-1.4.12-2.5q.04.79-.2 1.54m-.98 1.24c-.32-.49-.77-1.14-1.18-4-.1 2.6.6 4.15 1.22 4.87.39-.5.53-1.14.4-1.75q-.15.48-.47.88m-.93 1.23c-.26-.46-.46-.97-.73-3.53-.18 2.33.2 3.72.73 4.4.37-.42.52-1 .42-1.55q-.13.4-.41.68m34.88 1.54c.02.34.19.65.47.84.45-.89.57-1.92.33-2.89a5.4 5.4 0 0 1-.46 2.32 1 1 0 0 1-.3-.28m-.98-.89c0 .38.17.74.47.97.56-.99.74-2.14.5-3.25-.17 1.92-.6 2.6-.6 2.6s-.32-.16-.38-.3m-3.49-4.85a8 8 0 0 1-.09-2.01c-.49 1.08-.43 2.55-.07 3.05.72-.62 1.72-2.47 1.79-4.45-.62 2.32-1.24 2.98-1.63 3.41m1.03 1.63a4 4 0 0 1-.2-1.54c-.4 1.11-.27 2.03.12 2.5a7.4 7.4 0 0 0 1.49-4.8c-.39 2.38-1.06 3.38-1.4 3.84m2.16-2.78c-.41 2.86-.87 3.51-1.18 4a3 3 0 0 1-.47-.88 2.1 2.1 0 0 0 .4 1.76c.63-.73 1.32-2.28 1.22-4.88m.51 1.7c-.26 2.56-.46 3.1-.74 3.53q-.29-.29-.42-.67c-.1.55.06 1.12.43 1.55.53-.67.92-2.09.73-4.4m-5.73 4.31s-.34-.65.53-3.2c-1.6 2.42-.9 4.11-.9 4.11.52-.28.9-.76 1.06-1.33q-.28.3-.69.42m1.57 2.05c-.1.59-.45 1.1-.98 1.39-.32-1.01-.51-1.82.93-4.8-.98 2.93-.55 3.9-.55 3.9q.37-.17.61-.5M1.49 49.32h1.39c2.02 0 2.78-.76 2.78-3.42v-2.32c0-2.33-.71-3.17-2.23-3.17H1.5zM.03 39.15h3.51c1.46 0 2.5.53 3.07 1.75.47.96.5 3.25.5 3.6 0 2.45-.21 3.86-.69 4.61-.62.99-1.77 1.48-3.76 1.48H.03z"/><path fill="#0a0203" d="M9.67 50.59V39.15h5.88v1.27h-4.43v3.67h4.11v1.27h-4.11v3.96h4.52v1.27z"/><path fill="#0a0203" fill-rule="nonzero" d="M19.22 44.28h1.6c.6 0 2.02-.15 2.02-1.94 0-1.8-1.3-1.92-1.61-1.92h-2zm-1.46 6.3V39.16h3.39c1.54 0 3.18.57 3.18 3.26 0 2.6-2.03 3.13-3.2 3.13h-1.9v5.04zM29.05 40.5H29l-1.78 6.1h3.65zm-.9-1.35h1.87l3.71 11.44H32.1l-.83-2.7h-4.4l-.87 2.7h-1.47zM36.68 44.06h2.18c1.05 0 1.55-.9 1.55-1.9 0-.82-.41-1.74-1.53-1.74h-2.2zm0 1.27v5.26h-1.45V39.15h3.93c2.03 0 2.74 1.43 2.74 2.85a2.47 2.47 0 0 1-2.09 2.62c1.32.22 1.79.66 1.86 2.96a17 17 0 0 0 .4 2.99h-1.52c-.42-.8-.32-2.28-.47-3.8-.11-1.4-1.23-1.46-1.72-1.46z"/><path fill="#0a0203" d="M50.45 39.15v1.27h-3.01v10.17h-1.45V40.42h-3.01v-1.27zM53.33 50.59h-1.36V39.15h2.35l2.88 9.6h.03l2.91-9.6h2.41v11.44H61.1V40.42h-.04l-3.2 10.17h-1.37l-3.13-10.17h-.03zM65.13 50.59V39.15h5.88v1.27h-4.43v3.67h4.11v1.27h-4.11v3.96h4.53v1.27zM80.95 39.15v11.44h-2l-4.51-9.92h-.03v9.92h-1.29V39.15h2.05l4.45 9.79h.03v-9.79zM89.99 39.15v1.27h-3v10.17h-1.45V40.42h-3.01v-1.27z"/><path fill="#0a0203" fill-rule="nonzero" d="M100.65 46.49v-3.87c0-2.39-1.64-2.47-2.1-2.47s-2.1.08-2.1 2.47v3.87c0 2.5.72 3.14 2.1 3.14 1.37 0 2.1-.64 2.1-3.14m-5.69-.06v-3.76c0-2.28 1.17-3.72 3.59-3.72s3.6 1.46 3.6 3.72v3.76c0 3.16-1.18 4.41-3.6 4.41s-3.59-1.25-3.59-4.41"/><path fill="#0a0203" d="M104.56 50.59V39.15h5.67v1.27h-4.21v3.67H110v1.27h-3.98v5.23zM115.21 50.59V39.15h5.88v1.27h-4.43v3.67h4.11v1.27h-4.11v3.96h4.52v1.27z"/><path fill="#0a0203" fill-rule="nonzero" d="M124.6 49.32h1.4c2.02 0 2.78-.76 2.78-3.42v-2.32c0-2.33-.7-3.17-2.22-3.17h-1.92zm-1.45-10.17h3.5c1.47 0 2.51.53 3.08 1.75.46.96.5 3.25.5 3.6 0 2.45-.22 3.86-.69 4.61-.62.99-1.77 1.48-3.76 1.48h-2.63z"/><path fill="#0a0203" d="M132.73 39.15h1.45v7.34c0 2.5.76 3.14 2.13 3.14 1.38 0 2.14-.64 2.14-3.14v-7.34h1.45v7.26c0 3.16-1.17 4.42-3.59 4.42s-3.58-1.26-3.58-4.42zM147.48 42.3a2.7 2.7 0 0 0-.33-1.66 2 2 0 0 0-1.29-.49c-1.2 0-1.67.73-1.72.89s-.34.4-.34 2.38v3.07c0 2.79.93 3.14 2.05 3.14.44 0 1.78-.16 1.8-2.4h1.5c.07 3.61-2.48 3.61-3.22 3.61-1.43 0-3.6-.09-3.6-4.52v-3.24c0-3.23 1.41-4.15 3.66-4.15s3.13 1.18 2.99 3.4z"/><path fill="#0a0203" fill-rule="nonzero" d="M154.7 40.5h-.03l-1.79 6.1h3.66zm-.88-1.35h1.86l3.7 11.44h-1.62l-.83-2.7h-4.42l-.85 2.72h-1.46z"/><path fill="#0a0203" d="M166.14 39.15v1.27h-3v10.17h-1.46V40.42h-3.01v-1.27zM167.83 39.15h1.45v11.44h-1.45z"/><path fill="#0a0203" fill-rule="nonzero" d="M177.7 46.49v-3.87c0-2.39-1.66-2.47-2.11-2.47-.46 0-2.1.08-2.1 2.47v3.87c0 2.5.72 3.14 2.1 3.14s2.1-.64 2.1-3.14m-5.7-.06v-3.76c0-2.28 1.17-3.72 3.6-3.72 2.42 0 3.59 1.46 3.59 3.72v3.76c0 3.16-1.17 4.41-3.6 4.41-2.41 0-3.59-1.25-3.59-4.41"/><path fill="#0a0203" d="M189.61 39.15v11.44h-1.99l-4.51-9.92h-.03v9.92h-1.29V39.15h2.05l4.45 9.79h.03v-9.79z"/><path fill="#0a0203" fill-rule="nonzero" d="M76.39 59.7h-.03l-1.8 6.09h3.66zm-.89-1.35h1.86l3.71 11.43h-1.63l-.82-2.72H74.2l-.85 2.72h-1.47z"/><path fill="#0a0203" d="M90.5 58.35v11.43h-1.99L84 59.87h-.03v9.91h-1.3V58.35h2.05l4.45 9.79h.03v-9.79z"/><path fill="#0a0203" fill-rule="nonzero" d="M94.63 68.52h1.39c2.02 0 2.78-.76 2.78-3.43v-2.32c0-2.33-.71-3.17-2.23-3.17h-1.91zm-1.46-10.17h3.51c1.46 0 2.5.52 3.07 1.74.47.97.5 3.25.5 3.61 0 2.44-.22 3.85-.69 4.6-.62 1-1.77 1.48-3.76 1.48h-2.63z"/><path fill="#0a0203" d="M106.32 69.78V58.35h1.45v5.02h.05l3.98-5.02h1.65l-4.14 5.16 4.38 6.27h-1.87l-4-5.97h-.05v5.97zM123.02 58.35v11.43h-1.99l-4.51-9.91h-.03v9.91h-1.3V58.35h2.06l4.44 9.79h.03v-9.79z"/><path fill="#0a0203" fill-rule="nonzero" d="M131.3 65.66V61.8c0-2.4-1.64-2.47-2.1-2.47-.45 0-2.1.08-2.1 2.47v3.86c0 2.51.73 3.14 2.1 3.14 1.39 0 2.1-.63 2.1-3.14m-5.69-.06v-3.77c0-2.28 1.18-3.72 3.6-3.72s3.58 1.45 3.58 3.72v3.75c0 3.17-1.16 4.42-3.58 4.42s-3.6-1.25-3.6-4.42"/><path fill="#0a0203" d="M134.14 58.35h1.55l2.15 9.91h.03l2.3-9.91h1.88l2.07 9.91h.03l2.33-9.91H148l-3.03 11.43h-1.77l-2.16-9.91H141l-2.3 9.91h-1.78zM149.39 69.78V58.35h1.45v10.17h4.19v1.26zM156.41 69.78V58.35h5.89v1.27h-4.43v3.67h4.11v1.27h-4.11v3.96h4.52v1.26z"/><path fill="#0a0203" fill-rule="nonzero" d="M165.81 68.52h1.4c2.02 0 2.78-.76 2.78-3.43v-2.32c0-2.33-.71-3.17-2.23-3.17h-1.91zm-1.45-10.17h3.5c1.46 0 2.51.52 3.08 1.74.46.97.5 3.25.5 3.61 0 2.44-.22 3.85-.69 4.6-.62 1-1.77 1.48-3.76 1.48h-2.63z"/><path fill="#0a0203" d="M179.46 61.4c0-1.34-.56-2.07-2.03-2.07-.46 0-2.1.08-2.1 2.47v3.86c0 2.51.73 3.14 2.1 3.14a3.6 3.6 0 0 0 2.04-.5v-3.43h-2.11V63.6h3.56v5.58a7 7 0 0 1-3.5.86c-2.42 0-3.6-1.25-3.6-4.42v-3.8c0-2.27 1.18-3.71 3.6-3.71s3.64.9 3.54 3.3zM183.65 69.78V58.35h5.89v1.27h-4.43v3.67h4.11v1.27h-4.11v3.96h4.52v1.26z"/><path fill="#0a0203" fill-rule="nonzero" d="M6.5 15.75a.93.93 0 1 1-.27-.64q.27.26.27.64m-3.02 0c0 .51-.42.93-.93.93a.93.93 0 0 1 0-1.82c.51 0 .93.41.93.93zm3.08 10.2q0 .37.32.37h.88v1.4H6.69c-.42 0-.83-.16-1.1-.47-.31-.37-.46-.84-.43-1.31l-.03-5.87q-.48.24-1.13.6-.65.37-1.21.87-.57.52-.97 1.18-.43.7-.4 1.53c-.07.64.2 1.26.72 1.65q1.07.56 2.27.6l-.1 1.4a6 6 0 0 1-2.21-.47q-.75-.3-1.3-.9-.44-.49-.62-1.12a4.5 4.5 0 0 1 .62-3.73 8 8 0 0 1 1.83-1.83q1.01-.73 2.16-1.2a16 16 0 0 1 1.77-.63z"/><path fill="#0a0203" d="M16.9 27.68H7.76a1 1 0 0 1-.67-.24.52.52 0 0 1 0-.93 1 1 0 0 1 .67-.24h9.12z"/><path fill="#0a0203" fill-rule="nonzero" d="M19.74 15.37a.9.9 0 0 1-.93.93.93.93 0 0 1 0-1.82c.51 0 .93.42.93.93zm-4.37 7.64a2.7 2.7 0 0 0 1.06 2.18q1.04.86 3.25 1.16v-6.28h-.27q-.74 0-1.46.12-.68.1-1.3.44-.56.33-.92.89-.39.69-.35 1.48zm-2.31 4.7a1 1 0 0 1-.67-.24.7.7 0 0 1-.27-.47.6.6 0 0 1 .27-.46 1 1 0 0 1 .67-.25h2.67a3.8 3.8 0 0 1-1.74-3.35q-.02-.95.39-1.8.4-.81 1.11-1.35a5 5 0 0 1 1.71-.83q1.08-.29 2.2-.28a8 8 0 0 1 1.66.13v8.88z"/><path fill="#0a0203" d="M24.85 28.3q0 .9-.1 1.8a5 5 0 0 1-.47 1.65q-.39.76-1.1 1.22-.91.51-1.96.47v-1.4q.67.04 1.24-.32.45-.32.68-.84.24-.58.28-1.2.05-.7.05-1.4v-8.86h1.4v6.86h1.2v1.4h-1.2z"/><path fill="#0a0203" d="M30.88 27.68h-4.82a1 1 0 0 1-.67-.24.52.52 0 0 1 0-.93 1 1 0 0 1 .67-.24h4.82z"/><path fill="#0a0203" fill-rule="nonzero" d="M33.4 21.6q.3.2.77.56a12 12 0 0 1 2.7 2.97q.35-.61.83-1.17a13 13 0 0 1 2.66-2.32l-.46-.62q-.3-.39-.72-.67-.46-.33-.99-.52a4.17 4.17 0 0 0-3.39.32q-.92.51-1.43 1.44m8.82.6a13 13 0 0 0-3.46 2.78q-.52.6-.84 1.31h4.98v1.4h-12a1 1 0 0 1-.66-.24.52.52 0 0 1 0-.93 1 1 0 0 1 .66-.24h5.07a5 5 0 0 0-.93-1.4 10 10 0 0 0-2.44-2.03l-.92-.54a5 5 0 0 1 2.02-3.08q.72-.52 1.55-.76a6 6 0 0 1 3.67.07 5.2 5.2 0 0 1 2.6 2.12q.45.73.7 1.54"/><path fill="#0a0203" d="M47.68 27.68h-4.81a1 1 0 0 1-.68-.24.53.53 0 0 1 0-.93 1 1 0 0 1 .68-.24h4.81z"/><path fill="#0a0203" fill-rule="nonzero" d="M53.76 20.28q-.58.17-1.12.4-.64.27-1.21.67t-.97.97q-.4.59-.4 1.31 0 1.5.98 2.02 1.3.6 2.72.58zm1.4-1.69v7.7h1.2v1.39h-8.7a1 1 0 0 1-.66-.24.53.53 0 0 1 0-.93 1 1 0 0 1 .67-.24h1.9a3.7 3.7 0 0 1-.9-2.66c-.02-.84.26-1.67.79-2.32a6 6 0 0 1 1.86-1.55q1.02-.56 2.14-.84.84-.2 1.7-.31"/><path fill="#0a0203" d="M61.2 27.68h-4.82a1 1 0 0 1-.67-.25.53.53 0 0 1 0-.93 1 1 0 0 1 .67-.24h4.82z"/><path fill="#0a0203" d="M62.4 13.52h1.4v14.16h-2.6a1 1 0 0 1-.67-.24.52.52 0 0 1 0-.93 1 1 0 0 1 .67-.24h1.2zM65.94 13.61h1.39v14.07h-1.39z"/><path fill="#0a0203" fill-rule="nonzero" d="M74.45 26.28v-6.22a6.3 6.3 0 0 0-2.84 1.55 3.4 3.4 0 0 0-1.07 2.48c-.02.64.28 1.24.81 1.6q.82.6 2.56.6zm1.4 2.1q0 .93-.14 1.86a5 5 0 0 1-.51 1.62A3 3 0 0 1 74.11 33q-.87.48-1.88.44v-1.4q.7.05 1.28-.33.47-.36.67-.9.23-.65.26-1.31.04-.74.04-1.55v-.3h-.75a5.3 5.3 0 0 1-3.37-.97 3.1 3.1 0 0 1-1.2-2.57q-.01-1.11.49-2.12.52-1.02 1.39-1.75A7 7 0 0 1 73.16 19a10 10 0 0 1 2.7-.61zM87.75 20.28a9 9 0 0 0-2.35 1.07q-.57.4-.98.97-.4.59-.4 1.31 0 1.5.99 2.02 1.31.6 2.74.58zm1.4 3.62q0 .31.09.62.1.4.26.79.17.36.41.68.22.29.57.3v1.39h-.27a.6.6 0 0 1-.36-.15q-.18-.16-.32-.36-.15-.21-.26-.44l-.18-.42.05 1.37h-6.12v4.98h-1.4v-4.9q0-.58.37-1c.23-.3.57-.46.93-.47h.6a3.7 3.7 0 0 1-.89-2.66c-.02-.84.26-1.66.79-2.32a7 7 0 0 1 1.86-1.54q1.02-.57 2.15-.85.85-.21 1.71-.32z"/><path fill="#0a0203" d="M95.3 27.68H90.5a1 1 0 0 1-.67-.24.53.53 0 0 1 0-.93 1 1 0 0 1 .67-.24h4.81z"/><path fill="#0a0203" fill-rule="nonzero" d="M99.59 31.49a1 1 0 0 1-.64-.27.93.93 0 1 1 1.28 0 1 1 0 0 1-.64.27m-2.73 0a1 1 0 0 1-.64-.27.93.93 0 1 1 1.28-1.29.93.93 0 0 1-.64 1.56m-1.56-3.81a1 1 0 0 1-.66-.24.7.7 0 0 1-.27-.47.7.7 0 0 1 .27-.46 1 1 0 0 1 .66-.24h3.62v-6.84h1.4v6.84h1.2v1.39z"/><path fill="#0a0203" d="M106.36 27.68h-4.82a1 1 0 0 1-.66-.24.52.52 0 0 1 0-.93 1 1 0 0 1 .66-.24h4.82z"/><path fill="#0a0203" d="M107.57 13.52h1.39v12.76h1.2v1.4h-3.8a1 1 0 0 1-.67-.24.52.52 0 0 1 0-.93 1 1 0 0 1 .67-.24h1.2z"/><path fill="#0a0203" d="M113.75 27.68h-3.6a1 1 0 0 1-.67-.24.52.52 0 0 1 0-.93 1 1 0 0 1 .67-.24h3.6z"/><path fill="#0a0203" fill-rule="nonzero" d="m116.28 21.6.78.56a11 11 0 0 1 2.7 2.97q.36-.61.83-1.17a12 12 0 0 1 2.67-2.32l-.49-.62q-.3-.39-.72-.67-.46-.33-.99-.52a4.2 4.2 0 0 0-3.39.32q-.92.51-1.43 1.44m8.82.6a13 13 0 0 0-3.48 2.78q-.51.6-.85 1.31h4.98v1.4h-11.96a1 1 0 0 1-.67-.24.52.52 0 0 1 0-.93 1 1 0 0 1 .67-.24h5.06a5 5 0 0 0-.93-1.4 11 11 0 0 0-2.44-2.03l-.92-.54a5 5 0 0 1 2.02-3.08q.72-.52 1.55-.76a6 6 0 0 1 3.67.07q.83.3 1.51.85.65.55 1.1 1.27.45.73.7 1.54"/><path fill="#0a0203" d="M129.36 27.68h-3.6a1 1 0 0 1-.67-.24.52.52 0 0 1 0-.93 1 1 0 0 1 .67-.24h3.6z"/><path fill="#0a0203" fill-rule="nonzero" d="M133.67 17.52a.93.93 0 1 1 .64-.27.9.9 0 0 1-.64.27m-2.76 0a.9.9 0 0 1-.64-.27.9.9 0 0 1 0-1.28.93.93 0 1 1 .64 1.55m-1.55 10.16a1 1 0 0 1-.67-.24.7.7 0 0 1-.27-.47.6.6 0 0 1 .27-.46 1 1 0 0 1 .67-.24h3.61v-6.85h1.4v6.86h2.41v1.4z"/><path fill="#0a0203" d="M140.39 27.68h-4.82a1 1 0 0 1-.67-.24.53.53 0 0 1 0-.93 1 1 0 0 1 .67-.24h4.82z"/><path fill="#0a0203" d="M141.6 13.52h1.4v14.16h-2.6a1 1 0 0 1-.66-.24.52.52 0 0 1 0-.93 1 1 0 0 1 .66-.24h1.2zM145.13 13.61h1.39v14.07h-1.39z"/><path fill="#0a0203" fill-rule="nonzero" d="M159.34 15.75a.93.93 0 1 1-.27-.64q.26.26.27.64m-3.02 0a.93.93 0 1 1-1.86.03.93.93 0 0 1 1.86-.03m1.44 10.48v-6.22q-.48.22-1.12.57a6 6 0 0 0-2.17 1.98q-.41.66-.4 1.45-.03.59.34 1.04.38.45.89.7.55.27 1.15.38.57.1 1.15.1zm1.4 1.45h-1.48q-.8-.01-1.56-.19a6 6 0 0 1-1.64-.62q-.76-.43-1.28-1.13a3 3 0 0 1-.53-1.76q0-.91.38-1.75.37-.79.96-1.43.6-.64 1.33-1.1a12 12 0 0 1 3.81-1.64z"/><path fill="#0a0203" d="M162.96 28.3q0 .9-.1 1.8a5 5 0 0 1-.47 1.65q-.37.76-1.1 1.22-.9.51-1.95.47v-1.4q.68.04 1.23-.32.46-.32.69-.84.24-.58.28-1.2.06-.7.05-1.4v-8.86h1.4v6.86h1.2v1.4h-1.23z"/><path fill="#0a0203" d="M167.76 27.68h-3.6a1 1 0 0 1-.67-.24.52.52 0 0 1 0-.93 1 1 0 0 1 .67-.24h3.6z"/><path fill="#0a0203" d="M172.58 27.68h-4.82a1 1 0 0 1-.67-.24.53.53 0 0 1 0-.93 1 1 0 0 1 .67-.24h4.81z"/><path fill="#0a0203" fill-rule="nonzero" d="M176.94 16.11a3 3 0 0 0-1.15-.27q-.31-.01-.56.14a.5.5 0 0 0-.22.46c-.02.3.14.6.4.75q.47.25 1 .23h.66v.71h-3.58v-.7h1.15a1 1 0 0 1-.22-.35 2 2 0 0 1-.1-.62c-.04-.4.13-.8.46-1.03q.46-.3.99-.3.76 0 1.45.3zm-1.69 3.31h1.4v8.26h-4.08a1 1 0 0 1-.66-.24.53.53 0 0 1 0-.93 1 1 0 0 1 .66-.24h2.68z"/><path fill="#0a0203" d="M178.81 13.61h1.39v14.07h-1.39zM182.03 19.7q.63-.53 1.36-.87.95-.43 1.98-.4a3.8 3.8 0 0 1 3.19 1.61q.54.76.78 1.65a7 7 0 0 1 .15 3.28 8 8 0 0 1-.64 2.13q-.19.4-.29.58h-6.62v-1.4h5.76q.17-.4.35-1.07a6 6 0 0 0-.01-3.07q-.18-.64-.57-1.19a3 3 0 0 0-.92-.82q-.58-.3-1.22-.3-.6 0-1.15.2-.72.27-1.34.73z"/></g></svg>